<svg xmlns="http://www.w3.org/2000/svg" width="512" height="512" viewBox="0 0 512 512" fill="none">
  <rect width="512" height="512" rx="112" fill="#16A34A"/>
  <circle cx="256" cy="256" r="170" fill="#0F5132" opacity="0.25"/>
  <path d="M152 302V210h65.6c13 0 23.8 3.2 32.2 9.4 8.5 6.2 12.7 14.8 12.7 25.8 0 10.8-4.2 19.4-12.7 25.7-8.4 6.2-19.2 9.3-32.2 9.3h-34.1V302H152Zm31.2-49h27.2c5 0 9-1 11.8-3.1 2.9-2.1 4.3-5.2 4.3-9.2 0-4-1.4-7.1-4.3-9.3-2.8-2.2-6.8-3.3-11.8-3.3h-27.2V253ZM278.5 302V210h31.2v92h-31.2Zm30.3-39.3-1.7-27.7 38.8-25.3h44.8l-47.5 30.8-18.1 11.7-16.3 10.5Zm52.7 39.3-34.9-38.8 22.4-20.9 53.2 59.7h-40.7Z" fill="white"/>
</svg>
