<svg xmlns="http://www.w3.org/2000/svg" width="192" height="192" viewBox="0 0 192 192" fill="none">
  <rect width="192" height="192" rx="42" fill="#16A34A"/>
  <circle cx="96" cy="96" r="62" fill="#0F5132" opacity="0.25"/>
  <path d="M56 113V79h24.6c4.9 0 8.9 1.2 12 3.5 3.1 2.3 4.7 5.4 4.7 9.4 0 4-1.6 7.2-4.7 9.5-3.1 2.3-7.1 3.5-12 3.5H68.8V113H56Zm12.8-18.1h10.1c1.9 0 3.3-.4 4.4-1.1 1.1-.8 1.6-1.9 1.6-3.4 0-1.5-.5-2.6-1.6-3.4-1.1-.8-2.5-1.2-4.4-1.2H68.8v9.1ZM103.6 113V79h12.8v34h-12.8Zm12.4-14.5-.7-10.2 15.8-9.3h16.5l-17.9 10.4-6.6 3.8-7.1 5.3Zm17.6 14.5-12.9-14.8 8.4-7.8 19.5 22.6h-15Z" fill="white"/>
</svg>
